<mxfile host="app.diagrams.net" modified="2023-08-07T16:02:32.418Z" agent="Mozilla/5.0 (Windows NT 10.0; Win64; x64) AppleWebKit/537.36 (KHTML, like Gecko) Chrome/115.0.0.0 Safari/537.36" etag="1bKe_v3V739SZelm5UoT" version="21.6.6" type="github">
  <diagram name="Page-1" id="FSLx7rgjIn3nVGqtqkLh">
    <mxGraphModel dx="794" dy="456" grid="1" gridSize="10" guides="1" tooltips="1" connect="1" arrows="1" fold="1" page="1" pageScale="1" pageWidth="850" pageHeight="1100" math="0" shadow="0">
      <root>
        <mxCell id="0" />
        <mxCell id="1" parent="0" />
        <mxCell id="q8HeOubJwk00jbX__Gxu-1" value="" style="image;aspect=fixed;html=1;points=[];align=center;fontSize=12;image=img/lib/azure2/app_services/App_Services.svg;" vertex="1" parent="1">
          <mxGeometry x="329" y="110" width="54" height="54" as="geometry" />
        </mxCell>
        <mxCell id="q8HeOubJwk00jbX__Gxu-2" value="" style="image;aspect=fixed;html=1;points=[];align=center;fontSize=12;image=img/lib/azure2/preview/Time_Series_Data_Sets.svg;" vertex="1" parent="1">
          <mxGeometry x="280" y="215.35" width="31" height="41.33" as="geometry" />
        </mxCell>
        <mxCell id="q8HeOubJwk00jbX__Gxu-3" value="" style="image;aspect=fixed;html=1;points=[];align=center;fontSize=12;image=img/lib/azure2/devops/Application_Insights.svg;" vertex="1" parent="1">
          <mxGeometry x="400" y="214.67" width="34" height="48.68" as="geometry" />
        </mxCell>
        <mxCell id="q8HeOubJwk00jbX__Gxu-8" value="" style="shape=curlyBracket;whiteSpace=wrap;html=1;rounded=1;labelPosition=left;verticalLabelPosition=middle;align=right;verticalAlign=middle;direction=south;" vertex="1" parent="1">
          <mxGeometry x="297" y="190" width="120" height="20" as="geometry" />
        </mxCell>
        <mxCell id="q8HeOubJwk00jbX__Gxu-9" value="Application&amp;nbsp;&lt;br&gt;Insights" style="text;html=1;strokeColor=none;fillColor=none;align=center;verticalAlign=middle;whiteSpace=wrap;rounded=0;" vertex="1" parent="1">
          <mxGeometry x="387" y="263.68" width="60" height="30" as="geometry" />
        </mxCell>
        <mxCell id="q8HeOubJwk00jbX__Gxu-11" style="edgeStyle=orthogonalEdgeStyle;rounded=0;orthogonalLoop=1;jettySize=auto;html=1;exitX=1;exitY=0.5;exitDx=0;exitDy=0;" edge="1" parent="1" source="q8HeOubJwk00jbX__Gxu-10">
          <mxGeometry relative="1" as="geometry">
            <mxPoint x="340" y="270" as="targetPoint" />
          </mxGeometry>
        </mxCell>
        <mxCell id="q8HeOubJwk00jbX__Gxu-10" value="Azure Sql Db" style="text;html=1;strokeColor=none;fillColor=none;align=center;verticalAlign=middle;whiteSpace=wrap;rounded=0;" vertex="1" parent="1">
          <mxGeometry x="256" y="250" width="74" height="30" as="geometry" />
        </mxCell>
        <mxCell id="q8HeOubJwk00jbX__Gxu-12" value="Azure WebApps" style="text;html=1;strokeColor=none;fillColor=none;align=center;verticalAlign=middle;whiteSpace=wrap;rounded=0;" vertex="1" parent="1">
          <mxGeometry x="327" y="164" width="60" height="30" as="geometry" />
        </mxCell>
      </root>
    </mxGraphModel>
  </diagram>
</mxfile>
